PathFileType	4	(X/Y/Z)	c:/Users/goper/Files/vsCode/490R/osim_files/A02/A02_Slow_03.trc
DataRate	CameraRate	NumFrames	NumMarkers	Units                	OrigDataRate	OrigDataStartFrame	OrigNumFrames
250.00	250.00	4	36	mm	250.0	2401	3200
                Frame#	Time	Mobility_markerset:LPSIS			Mobility_markerset:LASIS			Mobility_markerset:LTH1			Mobility_markerset:LTH2			Mobility_markerset:LTH3			Mobility_markerset:LTH4			Mobility_markerset:LLFE			Mobility_markerset:LMFE			Mobility_markerset:LSH1			Mobility_markerset:LSH2			Mobility_markerset:LSH3			Mobility_markerset:LSH4			Mobility_markerset:LLMAL			Mobility_markerset:LMMAL			Mobility_markerset:LCAL			Mobility_markerset:LMTP5			Mobility_markerset:LTOE			Mobility_markerset:LMTP1			Mobility_markerset:RPSIS			Mobility_markerset:RASIS			Mobility_markerset:RTH1			Mobility_markerset:RTH2			Mobility_markerset:RTH3			Mobility_markerset:RTH4			Mobility_markerset:RLFE			Mobility_markerset:RMFE			Mobility_markerset:RSH1			Mobility_markerset:RSH2			Mobility_markerset:RSH3			Mobility_markerset:RSH4			Mobility_markerset:RLMAL			Mobility_markerset:RMMAL			Mobility_markerset:RCAL			Mobility_markerset:RMTP1			Mobility_markerset:RTOE			Mobility_markerset:RMTP5		
		X1	Y1	Z1	X2	Y2	Z2	X3	Y3	Z3	X4	Y4	Z4	X5	Y5	Z5	X6	Y6	Z6	X7	Y7	Z7	X8	Y8	Z8	X9	Y9	Z9	X10	Y10	Z10	X11	Y11	Z11	X12	Y12	Z12	X13	Y13	Z13	X14	Y14	Z14	X15	Y15	Z15	X16	Y16	Z16	X17	Y17	Z17	X18	Y18	Z18	X19	Y19	Z19	X20	Y20	Z20	X21	Y21	Z21	X22	Y22	Z22	X23	Y23	Z23	X24	Y24	Z24	X25	Y25	Z25	X26	Y26	Z26	X27	Y27	Z27	X28	Y28	Z28	X29	Y29	Z29	X30	Y30	Z30	X31	Y31	Z31	X32	Y32	Z32	X33	Y33	Z33	X34	Y34	Z34	X35	Y35	Z35	X36	Y36	Z36

2401	9.60000	0.00000	0.00000	0.00000	-3091.26001	932.56104	387.57846	-3067.21753	675.22229	428.11594	0.00000	0.00000	0.00000	-3120.20312	703.64349	440.69003	-3137.11401	661.44812	430.68634	-3207.44971	499.09930	386.03577	-3231.56616	485.72617	267.06256	-3162.15454	403.81622	381.79651	-3173.25024	360.86487	388.02808	-3221.34619	416.97903	392.06598	-3224.95044	372.16565	397.87540	-3279.80640	125.11690	364.94986	-3291.01685	137.12721	283.13797	0.00000	0.00000	0.00000	-3386.55615	109.57954	384.32657	-3424.02563	154.84422	323.25534	-3407.48950	115.60089	275.66858	0.00000	0.00000	0.00000	0.00000	0.00000	0.00000	0.00000	0.00000	0.00000	-3020.01880	597.91986	123.52016	0.00000	0.00000	0.00000	-3074.90430	589.92786	122.62807	-3021.02563	483.00800	117.08601	-3047.79492	480.52765	249.71983	-2975.33936	302.73611	140.51299	0.00000	0.00000	0.00000	-3034.56421	292.94812	132.92865	-3023.53979	247.33469	140.46410	-2943.50903	96.70393	151.45750	-2959.26660	98.68217	233.21976	-2893.55884	78.70632	197.30182	-3082.78418	58.19049	219.94827	-3101.60791	69.03011	184.34947	-3068.29419	57.13174	129.11726
2402	9.60400	0.00000	0.00000	0.00000	-3095.84961	931.28149	387.89798	-3071.12939	673.81348	427.65961	0.00000	0.00000	0.00000	-3124.13818	701.74805	440.37878	-3140.89160	659.56555	430.36581	-3211.49023	497.62662	385.55109	-3235.56567	484.65958	266.39673	-3168.41895	401.41714	381.43445	-3180.77075	358.95865	387.69650	-3227.44287	416.17072	391.48886	-3232.66357	371.83313	397.80161	-3292.70581	125.86732	364.79178	-3303.47412	138.05673	282.73923	0.00000	0.00000	0.00000	-3399.45508	113.02526	383.83371	-3436.83228	159.96513	322.78610	-3420.44897	119.63194	275.24631	-2949.43384	965.32312	315.33398	0.00000	0.00000	0.00000	0.00000	0.00000	0.00000	0.00000	0.00000	0.00000	-3089.56177	631.58765	124.33734	-3078.03198	589.48071	122.39384	-3023.39868	482.81165	116.88428	-3050.08911	480.17581	249.59425	-2976.68164	302.91559	140.33328	0.00000	0.00000	0.00000	-3036.47974	292.59326	132.80635	-3024.35449	247.29829	140.42010	-2943.63794	96.83357	151.46922	-2959.35010	98.74934	233.20277	-2893.66797	78.78893	197.34604	-3082.87671	58.11436	219.96201	-3101.61450	68.87240	184.36743	-3068.37744	57.05500	129.15828
2403	9.60800	0.00000	0.00000	0.00000	-3100.67017	930.07495	387.93378	-3075.04883	672.34235	427.15857	-3101.44482	632.74506	422.34579	-3128.31885	700.20038	440.17682	-3144.86768	657.87921	430.07889	-3215.61963	496.12369	385.02167	-3239.56714	483.56219	265.74606	-3174.98193	399.37650	381.16620	-3188.21362	357.14499	387.39859	-3233.63818	415.40704	390.92447	-3239.97876	371.29904	397.29425	-3305.44531	126.87767	364.63306	-3315.60962	139.03461	282.36356	0.00000	0.00000	0.00000	-3411.65430	116.45280	383.54059	-3448.29370	164.49445	322.21979	-3432.97778	123.63497	274.82108	0.00000	0.00000	0.00000	0.00000	0.00000	0.00000	0.00000	0.00000	0.00000	0.00000	0.00000	0.00000	-3092.97607	631.06787	124.04604	-3081.06470	588.98065	122.07325	-3025.82324	482.65784	116.62341	-3052.57495	479.83093	249.35031	-2978.04980	302.92157	140.40134	-2976.51758	258.70416	146.52586	-3037.78711	292.35721	132.66544	-3025.65063	247.00426	140.21230	-2943.77319	97.00504	151.48387	-2959.42920	98.83147	233.14706	-2893.74561	78.97468	197.32689	-3082.89233	57.99637	219.99174	-3101.65869	68.70583	184.40996	-3068.42114	56.99537	129.16559
2404	9.61200	0.00000	0.00000	0.00000	-3105.60669	928.77032	387.92416	0.00000	0.00000	0.00000	-3105.25830	631.23627	422.09735	-3132.35156	698.34637	439.89264	-3148.70312	655.97729	429.84924	-3219.79614	494.73111	384.60284	-3243.53491	482.43008	265.07687	-3181.40430	397.34042	380.90045	-3195.89185	355.67511	387.05563	-3240.78369	415.32413	390.22922	-3247.69019	370.82300	396.69931	-3319.51392	129.27309	364.88998	-3328.34473	140.81509	281.70923	0.00000	0.00000	0.00000	0.00000	0.00000	0.00000	-3459.54517	169.04985	321.66251	-3445.19873	127.67220	274.37338	0.00000	0.00000	0.00000	0.00000	0.00000	0.00000	0.00000	0.00000	0.00000	-3032.92212	596.11633	123.68973	0.00000	0.00000	0.00000	-3084.15894	588.38916	121.77207	-3028.28735	482.44272	116.39711	-3055.03198	479.59384	249.12595	-2979.46802	303.11151	140.05087	-2977.61304	258.96487	146.20348	-3039.04224	292.06537	132.51442	-3026.46167	246.91183	140.18634	-2943.90234	97.13312	151.46758	-2959.49951	98.98022	233.05121	-2893.99463	79.30325	197.15794	-3082.33765	57.54248	219.97298	-3101.78296	68.65338	184.41501	-3068.50269	56.94449	129.15210
